{
	"asset":{
		"generator":"Khronos glTF Blender I/O v3.5.30",
		"version":"2.0"
	},
	"scene":0,
	"scenes":[
		{
			"name":"Scene",
			"nodes":[
				0
			]
		}
	],
	"nodes":[
		{
			"mesh":0,
			"name":"Grass"
		}
	],
	"materials":[
		{
			"doubleSided":true,
			"name":"Grass",
			"pbrMetallicRoughness":{
				"baseColorTexture":{
					"index":0
				},
				"metallicFactor":0,
				"roughnessFactor":0.4000000059604645
			}
		}
	],
	"meshes":[
		{
			"name":"Grass",
			"primitives":[
				{
					"attributes":{
						"COLOR_0":0,
						"POSITION":1,
						"TEXCOORD_0":2,
						"NORMAL":3
					},
					"indices":4,
					"material":0
				}
			]
		}
	],
	"textures":[
		{
			"sampler":0,
			"source":0
		}
	],
	"images":[
		{
			"bufferView":5,
			"mimeType":"image/png",
			"name":"DeadGrass00"
		}
	],
	"accessors":[
		{
			"bufferView":0,
			"componentType":5123,
			"count":16,
			"normalized":true,
			"type":"VEC4"
		},
		{
			"bufferView":1,
			"componentType":5126,
			"count":16,
			"max":[
				0.4999999701976776,
				0.7727407217025757,
				0.4999999701976776
			],
			"min":[
				-0.4999999701976776,
				-2.8881686066668805e-17,
				-0.4999999701976776
			],
			"type":"VEC3"
		},
		{
			"bufferView":2,
			"componentType":5126,
			"count":16,
			"type":"VEC2"
		},
		{
			"bufferView":3,
			"componentType":5126,
			"count":16,
			"type":"VEC3"
		},
		{
			"bufferView":4,
			"componentType":5123,
			"count":24,
			"type":"SCALAR"
		}
	],
	"bufferViews":[
		{
			"buffer":0,
			"byteLength":128,
			"byteOffset":0,
			"target":34962
		},
		{
			"buffer":0,
			"byteLength":192,
			"byteOffset":128,
			"target":34962
		},
		{
			"buffer":0,
			"byteLength":128,
			"byteOffset":320,
			"target":34962
		},
		{
			"buffer":0,
			"byteLength":192,
			"byteOffset":448,
			"target":34962
		},
		{
			"buffer":0,
			"byteLength":48,
			"byteOffset":640,
			"target":34963
		},
		{
			"buffer":0,
			"byteLength":5352,
			"byteOffset":688
		}
	],
	"samplers":[
		{
			"magFilter":9728,
			"minFilter":9984
		}
	],
	"buffers":[
		{
			"byteLength":6040,
			"uri":"data:application/octet-stream;base64,"
		}
	]
}
