{
	"asset":{
		"generator":"Khronos glTF Blender I/O v3.5.30",
		"version":"2.0"
	},
	"scene":0,
	"scenes":[
		{
			"name":"Scene",
			"nodes":[
				0
			]
		}
	],
	"nodes":[
		{
			"mesh":0,
			"name":"LovelandCoveEntranceSign"
		}
	],
	"materials":[
		{
			"doubleSided":true,
			"name":"LovelandCoveEntranceSign",
			"pbrMetallicRoughness":{}
		},
		{
			"doubleSided":true,
			"name":"WoodPlanks",
			"pbrMetallicRoughness":{}
		}
	],
	"meshes":[
		{
			"name":"LovelandCoveEntranceSign",
			"primitives":[
				{
					"attributes":{
						"POSITION":0,
						"TEXCOORD_0":1,
						"NORMAL":2
					},
					"indices":3,
					"material":0
				},
				{
					"attributes":{
						"POSITION":4,
						"TEXCOORD_0":5,
						"NORMAL":6
					},
					"indices":7,
					"material":1
				}
			]
		}
	],
	"accessors":[
		{
			"bufferView":0,
			"componentType":5126,
			"count":12,
			"max":[
				1.3000001907348633,
				1.75,
				0.04999999701976776
			],
			"min":[
				-1.2999999523162842,
				0.09999990463256836,
				0.04999999701976776
			],
			"type":"VEC3"
		},
		{
			"bufferView":1,
			"componentType":5126,
			"count":12,
			"type":"VEC2"
		},
		{
			"bufferView":2,
			"componentType":5126,
			"count":12,
			"type":"VEC3"
		},
		{
			"bufferView":3,
			"componentType":5123,
			"count":30,
			"type":"SCALAR"
		},
		{
			"bufferView":4,
			"componentType":5126,
			"count":68,
			"max":[
				1.4499999284744263,
				1.75,
				0.10000000149011612
			],
			"min":[
				-1.4500001668930054,
				0,
				-0.10000000149011612
			],
			"type":"VEC3"
		},
		{
			"bufferView":5,
			"componentType":5126,
			"count":68,
			"type":"VEC2"
		},
		{
			"bufferView":6,
			"componentType":5126,
			"count":68,
			"type":"VEC3"
		},
		{
			"bufferView":7,
			"componentType":5123,
			"count":156,
			"type":"SCALAR"
		}
	],
	"bufferViews":[
		{
			"buffer":0,
			"byteLength":144,
			"byteOffset":0,
			"target":34962
		},
		{
			"buffer":0,
			"byteLength":96,
			"byteOffset":144,
			"target":34962
		},
		{
			"buffer":0,
			"byteLength":144,
			"byteOffset":240,
			"target":34962
		},
		{
			"buffer":0,
			"byteLength":60,
			"byteOffset":384,
			"target":34963
		},
		{
			"buffer":0,
			"byteLength":816,
			"byteOffset":444,
			"target":34962
		},
		{
			"buffer":0,
			"byteLength":544,
			"byteOffset":1260,
			"target":34962
		},
		{
			"buffer":0,
			"byteLength":816,
			"byteOffset":1804,
			"target":34962
		},
		{
			"buffer":0,
			"byteLength":312,
			"byteOffset":2620,
			"target":34963
		}
	],
	"buffers":[
		{
			"byteLength":2932,
			"uri":"data:application/octet-stream;base64,"
		}
	]
}
